<?xml version="1.0" standalone="no"?><!DOCTYPE svg PUBLIC "-//W3C//DTD SVG 1.1//EN" "http://www.w3.org/Graphics/SVG/1.1/DTD/svg11.dtd"><svg t="1638241108558" class="icon" viewBox="0 0 1024 1024" version="1.1" xmlns="http://www.w3.org/2000/svg" p-id="7822" xmlns:xlink="http://www.w3.org/1999/xlink" width="64" height="64"><defs><style type="text/css"></style></defs><path d="M170.666667 774.826667c-6.826667 0-17.066667-3.413333-23.893334-6.826667-13.653333-6.826667-23.893333-20.48-27.306666-34.133333-10.24-47.786667-23.893333-122.88-23.893334-221.866667s13.653333-177.493333 23.893334-221.866667c6.826667-17.066667 17.066667-27.306667 27.306666-34.133333 13.653333-6.826667 27.306667-6.826667 40.96-3.413333 71.68 27.306667 194.56 78.506667 238.933334 122.88l-17.066667 30.72C372.053333 365.226667 235.52 307.2 177.493333 283.306667c-3.413333-3.413333-10.24 0-13.653333 0-3.413333 3.413333-6.826667 6.826667-6.826667 13.653333-13.653333 44.373333-23.893333 116.053333-23.893333 215.04 0 95.573333 13.653333 170.666667 23.893333 215.04 0 3.413333 3.413333 10.24 6.826667 10.24 3.413333 3.413333 10.24 3.413333 13.653333 0 119.466667-47.786667 204.8-92.16 235.52-122.88l17.066667 30.72c-44.373333 44.373333-167.253333 92.16-238.933333 122.88-6.826667 3.413333-13.653333 6.826667-20.48 6.826667z" fill="#2D3545" p-id="7823"></path><path d="M252.586667 614.4l-3.413334-34.133333c37.546667-3.413333 139.946667-23.893333 139.946667-68.266667s-102.4-64.853333-139.946667-68.266667l3.413334-34.133333c17.066667 3.413333 167.253333 20.48 167.253333 102.4 3.413333 81.92-150.186667 98.986667-167.253333 102.4z" fill="#2D3545" p-id="7824"></path><path d="M583.68 648.533333h-153.6l-3.413333-6.826666c0-3.413333-37.546667-54.613333-37.546667-129.706667 0-75.093333 34.133333-126.293333 37.546667-129.706667l3.413333-6.826666h153.6l3.413333 6.826666c0 3.413333 37.546667 54.613333 37.546667 129.706667 0 75.093333-34.133333 126.293333-37.546667 129.706667l-3.413333 6.826666z m-136.533333-34.133333h116.053333c10.24-17.066667 27.306667-54.613333 27.306667-102.4s-17.066667-85.333333-27.306667-102.4h-116.053333c-10.24 17.066667-27.306667 54.613333-27.306667 102.4s20.48 85.333333 27.306667 102.4z" fill="#2D3545" p-id="7825"></path><path d="M843.093333 774.826667c-6.826667 0-13.653333 0-20.48-3.413334-71.68-27.306667-194.56-78.506667-238.933333-122.88l17.066667-30.72c30.72 30.72 116.053333 75.093333 235.52 122.88 3.413333 3.413333 10.24 0 13.653333 0 3.413333-3.413333 6.826667-6.826667 6.826667-10.24 10.24-44.373333 23.893333-119.466667 23.893333-215.04s-13.653333-170.666667-23.893333-215.04c0-3.413333-3.413333-10.24-6.826667-10.24-3.413333-3.413333-10.24-3.413333-13.653333 0-54.613333 20.48-191.146667 78.506667-235.52 119.466667l-17.066667-34.133333c44.373333-44.373333 167.253333-92.16 238.933333-122.88 13.653333-6.826667 30.72-3.413333 40.96 3.413333 13.653333 6.826667 23.893333 20.48 27.306667 34.133333 10.24 47.786667 23.893333 122.88 23.893333 221.866667s-13.653333 177.493333-23.893333 221.866667c-3.413333 13.653333-13.653333 27.306667-27.306667 34.133333-3.413333 3.413333-13.653333 6.826667-20.48 6.826667z" fill="#2D3545" p-id="7826"></path><path d="M761.173333 614.4c-17.066667-3.413333-167.253333-20.48-167.253333-102.4s150.186667-98.986667 167.253333-102.4l3.413334 34.133333c-37.546667 3.413333-139.946667 23.893333-139.946667 68.266667s102.4 64.853333 139.946667 68.266667l-3.413334 34.133333z" fill="#2D3545" p-id="7827"></path></svg>